<svg xmlns="http://www.w3.org/2000/svg" viewBox="0 0 24 24">
  <!-- Pixel-aligned variant of icon.svg for 24 px. -->
  <rect x="0" y="0" width="24" height="24" rx="5" fill="#2f6fed"/>
  <path fill="#ffffff" d="M5.5 4h13A2.5 2.5 0 0 1 21 6.5v7a2.5 2.5 0 0 1-2.5 2.5H10l-4.5 4v-4A2.5 2.5 0 0 1 3 13.5v-7A2.5 2.5 0 0 1 5.5 4z"/>
  <g fill="#2f6fed">
    <rect x="5" y="9" width="2" height="2"/>
    <rect x="8" y="7" width="2" height="6"/>
    <rect x="11" y="6" width="2" height="8"/>
    <rect x="14" y="8" width="2" height="4"/>
    <rect x="17" y="9" width="2" height="2"/>
  </g>
</svg>
